# xmcd
#
# Track frame offsets:
#	183
#	13273
#	25880
#	36788
#	47108
#	57665
#	67628
#	76705
#	87760
#	97633
#	109008
#	120975
#	132535
#	141900
#	154503
#	164063
#
# Disc length: 2363 seconds
#
# Revision: 0
# Processed by: cddbd v1.4PL0 Copyright (c) Steve Scherf et al.
# Submitted via: audiograbber 1.80.04
#
DISCID=c6093910
DTITLE=Jim Reeves - Special Edition Disc 1
DYEAR=1998
DGENRE=Country
TTITLE0=Distant Drums
TTITLE1=I Love You Because
TTITLE2=He'll Have To Go
TTITLE3=You're The Only Good Thing (That's Happen To Me)
TTITLE4=I'm Getting Better
TTITLE5=But You Love Me Daddy
TTITLE6=After Loving You
TTITLE7=Angels Don't Lie 
TTITLE8=When Two Worlds Collide
TTITLE9=Moonlight And Roses
TTITLE10=Welcome To My World
TTITLE11=Adios Amigo
TTITLE12=I Won't Forget You
TTITLE13=Nobody's Fool
TTITLE14=There's A Heartache Following Me
TTITLE15=Old Tige
EXTD=
EXTT0=
EXTT1=
EXTT2=
EXTT3=
EXTT4=
EXTT5=
EXTT6=
EXTT7=
EXTT8=
EXTT9=
EXTT10=
EXTT11=
EXTT12=
EXTT13=
EXTT14=
EXTT15=
PLAYORDER=
